<svg id="Layer_1" data-name="Layer 1" xmlns="http://www.w3.org/2000/svg" viewBox="0 0 96 96"><defs><style>.cls-1{fill:#900;}.cls-2{fill:#f6c545;}.cls-3{fill:none;stroke:#f6c545;stroke-miterlimit:10;}</style></defs><title>email-icon</title><circle class="cls-1" cx="48" cy="48" r="48"/><path class="cls-2" d="M26.5,37.84,45.53,52l-19,10.48V37.84m-1-2v28.3L47.37,52.09,25.5,35.85Z" transform="translate(-1.39 -2)"/><path class="cls-2" d="M71.48,36.85,50,52.8,28.52,36.85h43m3-1h-49L50,54.05l24.5-18.2Z" transform="translate(-1.39 -2)"/><path class="cls-2" d="M47.06,52.85l2.29,2,.6.51.64-.47L53.14,53,70.77,63.15H29.23L46.87,53l.19-.11M55.43,50l-2.36,1.74h0L55.43,50Zm-10.06.06,1,2L25.5,64.15h49L53.07,51.77,50,54.05l-4.63-4Z" transform="translate(-1.39 -2)"/><path class="cls-2" d="M73.5,37.84V62.41L54.88,51.67,73.5,37.84m1-2L53.07,51.77,74.5,64.15V35.85Z" transform="translate(-1.39 -2)"/><line class="cls-3" x1="25.54" y1="35.74" x2="25.54" y2="60.82"/><line class="cls-3" x1="71.83" y1="35.2" x2="71.83" y2="60.82"/><line class="cls-3" x1="26.78" y1="35.29" x2="69.97" y2="35.1"/><line class="cls-3" x1="27.08" y1="60.85" x2="69.61" y2="60.67"/></svg>